<svg preserveAspectRatio="none" width="100%" height="100%" overflow="visible" style="display: block;" viewBox="0 0 20 20" fill="none" xmlns="http://www.w3.org/2000/svg">
<g id="heart">
<path id="shape" fill-rule="evenodd" clip-rule="evenodd" d="M10 6.0046C9.27532 4.42802 7.68217 3.33333 5.83333 3.33333C3.30203 3.33333 1.25 5.38536 1.25 7.91667C1.25 9.46982 1.91843 10.7572 2.25678 11.3578C3.85693 14.198 6.43086 16.1513 9.25946 17.6589C9.7224 17.9056 10.2776 17.9056 10.7405 17.6589C13.5691 16.1513 16.1431 14.198 17.7432 11.3578C18.0816 10.7572 18.75 9.46982 18.75 7.91667C18.75 5.38536 16.698 3.33333 14.1667 3.33333C12.3178 3.33333 10.7247 4.42802 10 6.0046Z" fill="var(--fill-0, black)" fill-opacity="0.18"/>
<path id="shape (Stroke)" d="M17.6387 7.91634C17.6385 5.99894 16.0844 4.44484 14.167 4.44466C12.7681 4.44466 11.5599 5.27221 11.0098 6.46908C10.8284 6.86327 10.4339 7.11556 10 7.11556C9.56609 7.11556 9.17156 6.86327 8.99023 6.46908C8.44009 5.27221 7.23194 4.44466 5.83301 4.44466C3.91561 4.44484 2.3615 5.99894 2.36133 7.91634C2.36133 9.17056 2.90691 10.2489 3.22461 10.8128C4.67866 13.3936 7.04673 15.2201 9.78223 16.6781C9.91851 16.7507 10.0815 16.7507 10.2178 16.6781C12.9533 15.2201 15.3213 13.3936 16.7754 10.8128C17.0931 10.2489 17.6387 9.17056 17.6387 7.91634ZM19.8613 7.91634C19.8613 9.76822 19.07 11.2653 18.7109 11.9027C16.9647 15.0023 14.1843 17.0818 11.2627 18.639C10.4732 19.0597 9.5268 19.0597 8.7373 18.639C5.81568 17.0818 3.03533 15.0023 1.28906 11.9027C0.929999 11.2653 0.138672 9.76822 0.138672 7.91634C0.138848 4.77164 2.68831 2.22218 5.83301 2.22201C7.48008 2.22201 8.96102 2.9233 10 4.03939C11.039 2.9233 12.5199 2.22201 14.167 2.22201C17.3117 2.22218 19.8612 4.77164 19.8613 7.91634Z" fill="var(--fill-0, white)"/>
</g>
</svg>
