<svg preserveAspectRatio="none" width="100%" height="100%" overflow="visible" style="display: block;" viewBox="0 0 24 24" fill="none" xmlns="http://www.w3.org/2000/svg">
<g id="Loader">
<path id="Indicator" fill-rule="evenodd" clip-rule="evenodd" d="M1.84897 14.0191C1.44962 12.0114 1.65458 9.93034 2.43795 8.03912C3.22132 6.1479 4.5479 4.53146 6.24995 3.39418C7.952 2.25691 9.95307 1.64989 12.0001 1.64989C12.9114 1.64989 13.6501 2.38862 13.6501 3.29989C13.6501 4.21116 12.9114 4.94989 12.0001 4.94989C10.6057 4.94989 9.2427 5.36337 8.08333 6.13803C6.92397 6.9127 6.02035 8.01376 5.48675 9.30198C4.95315 10.5902 4.81354 12.0077 5.08557 13.3753C5.35759 14.7428 6.02904 15.999 7.015 16.985C8.00096 17.971 9.25715 18.6424 10.6247 18.9144C11.9923 19.1865 13.4098 19.0468 14.698 18.5132C15.9862 17.9796 17.0873 17.076 17.862 15.9167C18.6366 14.7573 19.0501 13.3943 19.0501 11.9999C19.0501 11.0886 19.7888 10.3499 20.7001 10.3499C21.6114 10.3499 22.3501 11.0886 22.3501 11.9999C22.3501 14.0469 21.7431 16.048 20.6058 17.75C19.4685 19.4521 17.8521 20.7787 15.9609 21.562C14.0697 22.3454 11.9886 22.5504 9.98092 22.151C7.97322 21.7517 6.12902 20.7659 4.68155 19.3184C3.23407 17.871 2.24833 16.0268 1.84897 14.0191Z" fill="var(--fill-0, #F4FEF9)" fill-opacity="0.69"/>
</g>
</svg>
