<svg preserveAspectRatio="none" width="100%" height="100%" overflow="visible" style="display: block;" viewBox="0 0 12 16" fill="none" xmlns="http://www.w3.org/2000/svg">
<g id="Group">
<path id="Vector" opacity="0.72" d="M6 0L11.2506 2.91701C11.7131 3.17397 12 3.66149 12 4.19059C12 5.30148 10.8066 6.00367 9.83552 5.46418L6 3.33333L2.16448 5.46418C1.19339 6.00367 0 5.30148 0 4.19059C0 3.66149 0.286858 3.17397 0.749382 2.91701L6 0Z" fill="var(--fill-0, #191F1C)"/>
<path id="Vector_2" opacity="0.48" d="M6 4.66667L11.2506 7.58368C11.7131 7.84063 12 8.32815 12 8.85726C12 9.96815 10.8066 10.6703 9.83552 10.1308L6 8L2.16448 10.1308C1.19339 10.6703 0 9.96815 0 8.85726C0 8.32815 0.286858 7.84063 0.749382 7.58368L6 4.66667Z" fill="var(--fill-0, #191F1C)"/>
<path id="Vector_3" opacity="0.24" d="M6 9.33333L11.2506 12.2503C11.7131 12.5073 12 12.9948 12 13.5239C12 14.6348 10.8066 15.337 9.83552 14.7975L6 12.6667L2.16448 14.7975C1.19339 15.337 0 14.6348 0 13.5239C0 12.9948 0.286858 12.5073 0.749382 12.2503L6 9.33333Z" fill="var(--fill-0, #191F1C)"/>
</g>
</svg>
