<svg preserveAspectRatio="none" width="100%" height="100%" overflow="visible" style="display: block;" viewBox="0 0 18 19.996" fill="none" xmlns="http://www.w3.org/2000/svg">
<path id="Subtract" d="M7.63184 0.540926C8.40115 -0.180308 9.59885 -0.180309 10.3682 0.540926L17.3682 7.10343C17.7712 7.48149 18 8.00979 18 8.56241V17.996C18 19.1005 17.1045 19.996 16 19.996H2C0.89546 19.996 4.85754e-05 19.1005 0 17.996V8.56241C0 8.00979 0.228797 7.48149 0.631836 7.10343L7.63184 0.540926ZM7 11.996C6.44772 11.996 6 12.4437 6 12.996V17.996H12V12.996C12 12.4437 11.5523 11.996 11 11.996H7ZM8 6.996C7.44772 6.996 7 7.44372 7 7.996C7 8.54829 7.44772 8.996 8 8.996H10C10.5523 8.996 11 8.54829 11 7.996C11 7.44372 10.5523 6.996 10 6.996H8Z" fill="var(--fill-0, #191F1C)"/>
</svg>
