<svg preserveAspectRatio="none" width="100%" height="100%" overflow="visible" style="display: block;" viewBox="0 0 10 10" fill="none" xmlns="http://www.w3.org/2000/svg">
<path id="shape" fill-rule="evenodd" clip-rule="evenodd" d="M3 0C3.27614 0 3.5 0.223858 3.5 0.5V1H6.5V0.5C6.5 0.223858 6.72386 0 7 0C7.27614 0 7.5 0.223858 7.5 0.5V1H9C9.55228 1 10 1.44772 10 2V9C10 9.55228 9.55228 10 9 10H1C0.447715 10 0 9.55228 0 9V2C0 1.44772 0.447715 1 1 1H2.5V0.5C2.5 0.223858 2.72386 0 3 0ZM6.5 2V2.5C6.5 2.77614 6.72386 3 7 3C7.27614 3 7.5 2.77614 7.5 2.5V2H9V4H1V2H2.5V2.5C2.5 2.77614 2.72386 3 3 3C3.27614 3 3.5 2.77614 3.5 2.5V2H6.5Z" fill="var(--fill-0, #ECEEED)"/>
</svg>
