<svg preserveAspectRatio="none" width="100%" height="100%" overflow="visible" style="display: block;" viewBox="0 0 14.0094 13.4984" fill="none" xmlns="http://www.w3.org/2000/svg">
<path id="shape" d="M13.6594 6.14863L10.8406 8.60863L11.685 12.2711C11.7297 12.4626 11.7169 12.663 11.6484 12.8472C11.5798 13.0315 11.4584 13.1914 11.2994 13.3071C11.1404 13.4227 10.9508 13.489 10.7544 13.4975C10.558 13.506 10.3634 13.4564 10.195 13.3549L7.00064 11.4174L3.81314 13.3549C3.64475 13.4564 3.45017 13.506 3.25375 13.4975C3.05732 13.489 2.86776 13.4227 2.70876 13.3071C2.54976 13.1914 2.42838 13.0315 2.35979 12.8472C2.29121 12.663 2.27846 12.4626 2.32314 12.2711L3.16626 8.61238L0.346889 6.14863C0.197769 6.02002 0.0899403 5.85024 0.0369239 5.66059C-0.0160926 5.47094 -0.0119363 5.26986 0.0488714 5.08257C0.109679 4.89527 0.224431 4.7301 0.378738 4.60776C0.533044 4.48542 0.720036 4.41136 0.916264 4.39488L4.63251 4.073L6.08314 0.613C6.15889 0.431448 6.28667 0.276367 6.45038 0.167286C6.61409 0.0582051 6.80642 0 7.00314 0C7.19986 0 7.39219 0.0582051 7.5559 0.167286C7.71961 0.276367 7.84738 0.431448 7.92314 0.613L9.37814 4.073L13.0931 4.39488C13.2894 4.41136 13.4764 4.48542 13.6307 4.60776C13.785 4.7301 13.8997 4.89527 13.9605 5.08257C14.0213 5.26986 14.0255 5.47094 13.9725 5.66059C13.9195 5.85024 13.8116 6.02002 13.6625 6.14863H13.6594Z" fill="var(--fill-0, #FFB200)"/>
</svg>
