<svg preserveAspectRatio="none" width="100%" height="100%" overflow="visible" style="display: block;" viewBox="0 0 16 16" fill="none" xmlns="http://www.w3.org/2000/svg">
<g id="bike_delivery (outline)">
<g id="shape">
<path fill-rule="evenodd" clip-rule="evenodd" d="M3.66667 8.66667C5.33333 8.66667 6.66667 10 6.66667 11.6667C6.66667 13.3333 5.33333 14.6667 3.66667 14.6667C2 14.6667 0.666667 13.3333 0.666667 11.6667C0.666667 10 2 8.66667 3.66667 8.66667ZM3.66667 10C2.73333 10 2 10.7333 2 11.6667C2 12.6 2.73333 13.3333 3.66667 13.3333C4.6 13.3333 5.33333 12.6 5.33333 11.6667C5.33333 10.7333 4.6 10 3.66667 10Z" fill="var(--fill-0, #191F1C)"/>
<path fill-rule="evenodd" clip-rule="evenodd" d="M13 8.66667C14.6667 8.66667 16 10 16 11.6667C16 13.3333 14.6667 14.6667 13 14.6667C11.3333 14.6667 10 13.3333 10 11.6667C10 10 11.3333 8.66667 13 8.66667ZM13 10C12.0667 10 11.3333 10.7333 11.3333 11.6667C11.3333 12.6 12.0667 13.3333 13 13.3333C13.9333 13.3333 14.6667 12.6 14.6667 11.6667C14.6667 10.7333 13.9333 10 13 10Z" fill="var(--fill-0, #191F1C)"/>
<path d="M8 4.73307C8.33328 4.39992 8.86656 4.39997 9.19987 4.73307L10.4668 6H11.8001C12.2001 6.00006 12.6003 6.33351 12.6003 6.80013C12.6002 7.20005 12.2667 7.6002 11.8001 7.60026H10C9.8 7.60025 9.53307 7.46666 9.39974 7.33333L8.5332 6.4668L7.33333 7.66667L8.80013 9.13346C8.99995 9.33334 9.06635 9.5332 9.06641 9.73307V12.6667C9.0664 13.0666 8.73346 13.4667 8.26693 13.4668C7.86693 13.4668 7.46681 13.1333 7.4668 12.6667V10.0664L6.13346 8.73307C5.53356 8.1331 5.53357 7.20024 6.13346 6.60026L8 4.73307Z" fill="var(--fill-0, #191F1C)"/>
<path fill-rule="evenodd" clip-rule="evenodd" d="M4.60026 0.666667C4.73352 0.666742 4.93315 0.73342 5.06641 0.866536L7.33333 3.19987C7.6 3.46654 7.6 3.8668 7.33333 4.13346L5 6.4668C4.86669 6.60008 4.73316 6.66667 4.5332 6.66667C4.39987 6.66661 4.19968 6.60008 4.06641 6.4668L1.73307 4.13346C1.46651 3.86682 1.46651 3.46651 1.73307 3.19987L4.13346 0.866536C4.26676 0.733279 4.40032 0.666667 4.60026 0.666667ZM3.19987 3.66667L4.60026 5.13346L6 3.66667L4.60026 2.26693L3.19987 3.66667Z" fill="var(--fill-0, #191F1C)"/>
<path d="M10.4668 2.13346C11.2001 2.13355 11.8001 2.73352 11.8001 3.4668C11.8001 4.20002 11.2 4.80004 10.4668 4.80013C9.7335 4.80013 9.13353 4.20007 9.13346 3.4668C9.13346 2.73346 9.73346 2.13346 10.4668 2.13346Z" fill="var(--fill-0, #191F1C)"/>
</g>
</g>
</svg>
