<svg preserveAspectRatio="none" width="100%" height="100%" overflow="visible" style="display: block;" viewBox="0 0 20 20" fill="none" xmlns="http://www.w3.org/2000/svg">
<g id="timer (outline)">
<g id="shape">
<path d="M10 5C10.4602 5 10.8333 5.3731 10.8333 5.83333V8.92415C11.569 9.2457 12.0833 9.97915 12.0833 10.8333C12.0833 11.9839 11.1506 12.9167 10 12.9167C8.84941 12.9167 7.91667 11.9839 7.91667 10.8333C7.91667 9.97915 8.43103 9.2457 9.16667 8.92415V5.83333C9.16667 5.3731 9.53976 5 10 5Z" fill="var(--fill-0, #191F1C)"/>
<path fill-rule="evenodd" clip-rule="evenodd" d="M10 0C10.4602 -2.01175e-08 10.8333 0.373096 10.8333 0.833333V1.70573C12.7387 1.87746 14.4757 2.63103 15.8651 3.78906L16.4941 3.16081C16.8196 2.83539 17.3471 2.83539 17.6725 3.16081C17.998 3.48624 17.998 4.01375 17.6725 4.33919L17.0435 4.96745C18.3688 6.55709 19.1667 8.60187 19.1667 10.8333C19.1667 15.8959 15.0626 20 10 20C4.93739 20 0.833333 15.8959 0.833333 10.8333C0.833333 6.05168 4.49466 2.12682 9.16667 1.70573V0.833333C9.16667 0.373096 9.53976 2.01175e-08 10 0ZM10 3.33333C5.85786 3.33333 2.5 6.6912 2.5 10.8333C2.5 14.9755 5.85786 18.3333 10 18.3333C14.1421 18.3333 17.5 14.9755 17.5 10.8333C17.5 6.6912 14.1421 3.33333 10 3.33333Z" fill="var(--fill-0, #191F1C)"/>
</g>
</g>
</svg>
