<svg preserveAspectRatio="none" width="100%" height="100%" overflow="visible" style="display: block;" viewBox="0 0 24 24" fill="none" xmlns="http://www.w3.org/2000/svg">
<g id="shopping_bag (outline)">
<g id="shape">
<path d="M15.9978 9C16.5497 9.00003 16.9968 9.44774 16.9968 10C16.9968 12.7614 14.7598 14.9999 11.9997 15C9.23958 15 7.00166 12.7614 7.00166 10C7.00166 9.44771 7.44963 9 8.00166 9C8.55359 9.00011 9.00068 9.44779 9.00068 10C9.00068 11.6569 10.3436 13 11.9997 13C13.6557 12.9999 14.9978 11.6568 14.9978 10C14.9978 9.44771 15.4457 9 15.9978 9Z" fill="var(--fill-0, #000A07)" fill-opacity="0.63"/>
<path fill-rule="evenodd" clip-rule="evenodd" d="M11.9206 1C14.6807 1.00001 16.9187 3.23858 16.9187 6H19.1433C20.192 6.00001 21.0626 6.81088 21.1374 7.85742L21.9948 19.8574C22.0775 21.0151 21.1607 21.9998 20.0007 22H3.99873C2.83882 21.9997 1.92196 21.015 2.00459 19.8574L2.86103 7.85742C2.93576 6.81108 3.80674 6.00038 4.85517 6H6.92353C6.92353 3.23887 9.16089 1.00048 11.9206 1ZM3.99873 20H19.9997L19.1433 8H4.85517L3.99873 20ZM11.9206 3C10.2651 3.00063 8.92256 4.34353 8.92256 6H14.9196C14.9196 4.34325 13.5765 3.00017 11.9206 3Z" fill="var(--fill-0, #000A07)" fill-opacity="0.63"/>
</g>
</g>
</svg>
