<svg preserveAspectRatio="none" width="100%" height="100%" overflow="visible" style="display: block;" viewBox="0 0 21 17.4378" fill="none" xmlns="http://www.w3.org/2000/svg">
<path id="shape" fill-rule="evenodd" clip-rule="evenodd" d="M15.0234 0C18.2988 0 20.9999 2.59234 21 5.8457C21 7.76358 20.1584 9.3172 19.7725 9.98438C17.8259 13.349 14.6781 15.5693 11.3857 17.2275C10.8286 17.5079 10.1714 17.5079 9.61426 17.2275C6.32188 15.5693 3.17409 13.349 1.22754 9.98438C0.841573 9.3172 0 7.76358 0 5.8457C7.15157e-05 2.59234 2.70124 0 5.97656 0C7.7792 0.000107582 9.40186 0.782199 10.5 2.02539C11.5981 0.782199 13.2208 0.000107582 15.0234 0ZM15.0234 2C13.5623 2.00013 12.294 2.76063 11.6035 3.88281C11.1023 4.69714 9.8977 4.69714 9.39648 3.88281C8.70601 2.76063 7.43774 2.00013 5.97656 2C3.75543 2 2.00007 3.74662 2 5.8457C2 7.21177 2.61016 8.38046 2.95898 8.9834C4.62283 11.8592 7.3686 13.8547 10.5 15.4336C13.6314 13.8547 16.3772 11.8592 18.041 8.9834C18.3898 8.38046 19 7.21177 19 5.8457C18.9999 3.74662 17.2446 2 15.0234 2Z" fill="var(--fill-0, white)"/>
</svg>
