<svg preserveAspectRatio="none" width="100%" height="100%" overflow="visible" style="display: block;" viewBox="0 0 14.6667 14.6667" fill="none" xmlns="http://www.w3.org/2000/svg">
<path id="shape" fill-rule="evenodd" clip-rule="evenodd" d="M7.33333 14.6667C11.3834 14.6667 14.6667 11.3834 14.6667 7.33333C14.6667 3.28325 11.3834 0 7.33333 0C3.28325 0 0 3.28325 0 7.33333C0 11.3834 3.28325 14.6667 7.33333 14.6667ZM7.141 4.1956C6.88036 4.45639 6.88036 4.87922 7.141 5.14002L8.66443 6.66553H4.00075C3.63215 6.66553 3.33333 6.96452 3.33333 7.33334C3.33333 7.70215 3.63215 8.00114 4.00075 8.00114H8.66443L7.141 9.52665C6.88036 9.78745 6.88036 10.2103 7.141 10.4711C7.40164 10.7319 7.82422 10.7319 8.08486 10.4711L10.2757 8.27775C10.797 7.75617 10.797 6.9105 10.2757 6.38891L8.08486 4.1956C7.82422 3.9348 7.40164 3.9348 7.141 4.1956Z" fill="var(--fill-0, #007042)" fill-opacity="0.92"/>
</svg>
