<svg preserveAspectRatio="none" width="100%" height="100%" overflow="visible" style="display: block;" viewBox="0 0 20.4812 20.4812" fill="none" xmlns="http://www.w3.org/2000/svg">
<g id="Group">
<path id="Vector" d="M15.6513 0H4.82989C2.16242 0 0 2.16241 0 4.82989V15.6513C0 18.3188 2.16242 20.4812 4.82989 20.4812H15.6513C18.3188 20.4812 20.4812 18.3188 20.4812 15.6513V4.82989C20.4812 2.16241 18.3188 0 15.6513 0Z" fill="var(--fill-0, #0C2C1C)"/>
<path id="Vector_2" d="M10.2381 16.4659C10.2381 16.4659 11.1105 12.8025 11.3081 12.0072C11.3226 11.959 11.366 11.9156 11.4142 11.9156C12.1131 11.8336 15.7187 11.5059 15.7187 11.5059C16.2585 11.4577 16.837 10.831 16.8466 10.3008C16.8563 9.70792 16.8129 9.20662 16.1477 8.59927C15.8922 8.36789 15.4921 8.26185 14.8655 8.26185C14.4317 8.26185 12.9422 8.42574 12.4168 8.46912C12.3445 8.46912 12.2915 8.41128 12.3108 8.33897C12.4746 7.77982 13.0434 5.84209 13.1832 5.05157C13.2411 4.73825 13.2073 4.47796 13.0916 4.25623C12.7783 3.65852 11.9974 3.4175 11.366 3.4175C10.5466 3.4175 9.95848 3.81276 9.80423 4.45868C9.80423 4.45868 8.88357 8.04976 8.71968 8.69567C8.70522 8.76315 8.65219 8.80172 8.58953 8.81136C7.98218 8.88366 4.92615 9.21144 4.50679 9.26446C4.03922 9.3223 3.7259 9.77541 3.66806 10.1851C3.56684 10.8744 3.70662 11.5011 4.04404 11.8867C4.37182 12.2723 4.95507 12.4121 5.31658 12.3639C5.49493 12.3398 7.33627 12.118 7.87131 12.0506C7.9388 12.0506 7.987 12.1084 7.97254 12.1662C7.81829 12.735 7.36519 14.2293 7.28324 14.5378C7.19166 14.8849 6.90726 15.9164 7.6785 16.5478C8.12197 16.9094 8.7968 17.1215 9.37041 17.1215C9.78013 17.1215 10.1416 16.8515 10.2429 16.4707V16.4611L10.2381 16.4659Z" fill="var(--fill-0, white)"/>
</g>
</svg>
