<svg preserveAspectRatio="none" width="100%" height="100%" overflow="visible" style="display: block;" viewBox="0 0 12 12" fill="none" xmlns="http://www.w3.org/2000/svg">
<g id="timer (outline)">
<g id="shape">
<path d="M6 3C6.27614 3 6.5 3.22386 6.5 3.5V5.35449C6.94138 5.54742 7.25 5.98749 7.25 6.5C7.25 7.19036 6.69036 7.75 6 7.75C5.30964 7.75 4.75 7.19036 4.75 6.5C4.75 5.98749 5.05862 5.54742 5.5 5.35449V3.5C5.5 3.22386 5.72386 3 6 3Z" fill="var(--fill-0, #191F1C)"/>
<path fill-rule="evenodd" clip-rule="evenodd" d="M6 0C6.27614 -1.20705e-08 6.5 0.223858 6.5 0.5V1.02344C7.64323 1.12648 8.68543 1.57862 9.51904 2.27344L9.89648 1.89648C10.0917 1.70123 10.4083 1.70123 10.6035 1.89648C10.7988 2.09174 10.7988 2.40825 10.6035 2.60352L10.2261 2.98047C11.0213 3.93426 11.5 5.16112 11.5 6.5C11.5 9.53757 9.03757 12 6 12C2.96243 12 0.5 9.53757 0.5 6.5C0.5 3.63101 2.69679 1.27609 5.5 1.02344V0.5C5.5 0.223858 5.72386 1.20705e-08 6 0ZM6 2C3.51472 2 1.5 4.01472 1.5 6.5C1.5 8.98528 3.51472 11 6 11C8.48528 11 10.5 8.98528 10.5 6.5C10.5 4.01472 8.48528 2 6 2Z" fill="var(--fill-0, #191F1C)"/>
</g>
</g>
</svg>
