<svg preserveAspectRatio="none" width="100%" height="100%" overflow="visible" style="display: block;" viewBox="0 0 24 24" fill="none" xmlns="http://www.w3.org/2000/svg">
<g id="dineout-select">
<path id="Line 1 (Stroke)" d="M22 20L22.1025 20.0049C22.6067 20.0562 23 20.4823 23 21C23 21.5177 22.6067 21.9438 22.1025 21.9951L22 22L2 22C1.44772 22 1 21.5523 1 21C1 20.4477 1.44772 20 2 20L22 20Z" fill="var(--fill-0, #191F1C)"/>
<path id="Line 5 (Stroke)" d="M13 3L13.1025 3.00488C13.6067 3.05622 14 3.48233 14 4C14 4.51768 13.6067 4.94379 13.1025 4.99512L13 5L11 5C10.4477 5 10 4.55228 10 4C10 3.44771 10.4477 3 11 3L13 3Z" fill="var(--fill-0, #191F1C)"/>
<path id="Subtract" d="M12 7C17.078 7 21 11.5911 21 17V18H3V17C3 11.5911 6.92196 7 12 7ZM12 12C12.9114 12 13.6497 12.4207 14.1816 13.0342C14.7313 13.6681 15 14.4409 15 15H17C17 13.9023 16.5186 12.6754 15.6934 11.7236C14.8503 10.7514 13.5886 10 12 10V12Z" fill="var(--fill-0, #191F1C)"/>
</g>
</svg>
