<svg preserveAspectRatio="none" width="100%" height="100%" overflow="visible" style="display: block;" viewBox="0 0 39.8214 36.5331" fill="none" xmlns="http://www.w3.org/2000/svg">
<g id="heart" filter="url(#filter0_d_0_108)">
<path id="shape" fill-rule="evenodd" clip-rule="evenodd" d="M19.9107 9.79553C19.1136 8.0613 17.3611 6.85714 15.3274 6.85714C12.5429 6.85714 10.2857 9.11437 10.2857 11.8988C10.2857 13.6073 11.021 15.0234 11.3932 15.684C13.1533 18.8083 15.9847 20.9569 19.0961 22.6152C19.6054 22.8866 20.2161 22.8866 20.7253 22.6152C23.8368 20.9569 26.6681 18.8083 28.4283 15.684C28.8004 15.0234 29.5357 13.6073 29.5357 11.8988C29.5357 9.11437 27.2785 6.85714 24.494 6.85714C22.4603 6.85714 20.7079 8.0613 19.9107 9.79553Z" fill="var(--fill-0, #002D1E)" fill-opacity="0.07"/>
</g>
<defs>
<filter id="filter0_d_0_108" x="-1.375" y="-3.66667" width="42.5714" height="42.5714" filterUnits="userSpaceOnUse" color-interpolation-filters="sRGB">
<feFlood flood-opacity="0" result="BackgroundImageFix"/>
<feColorMatrix in="SourceAlpha" type="matrix" values="0 0 0 0 0 0 0 0 0 0 0 0 0 0 0 0 0 0 127 0" result="hardAlpha"/>
<feOffset dy="3.42857"/>
<feGaussianBlur stdDeviation="5.14286"/>
<feColorMatrix type="matrix" values="0 0 0 0 0 0 0 0 0 0 0 0 0 0 0 0 0 0 0.16 0"/>
<feBlend mode="normal" in2="BackgroundImageFix" result="effect1_dropShadow_0_108"/>
<feBlend mode="normal" in="SourceGraphic" in2="effect1_dropShadow_0_108" result="shape"/>
</filter>
</defs>
</svg>
