<svg preserveAspectRatio="none" width="100%" height="100%" overflow="visible" style="display: block;" viewBox="0 0 16 16" fill="none" xmlns="http://www.w3.org/2000/svg">
<g id="timer (outline)">
<g id="shape">
<path d="M8 4C8.36819 4 8.66667 4.29848 8.66667 4.66667V7.13932C9.25518 7.39656 9.66667 7.98332 9.66667 8.66667C9.66667 9.58714 8.92047 10.3333 8 10.3333C7.07953 10.3333 6.33333 9.58714 6.33333 8.66667C6.33333 7.98332 6.74482 7.39656 7.33333 7.13932V4.66667C7.33333 4.29848 7.63181 4 8 4Z" fill="var(--fill-0, #191F1C)"/>
<path fill-rule="evenodd" clip-rule="evenodd" d="M8 0C8.36819 -1.6094e-08 8.66667 0.298477 8.66667 0.666667V1.36458C10.191 1.50197 11.5806 2.10482 12.6921 3.03125L13.1953 2.52865C13.4557 2.26831 13.8777 2.26831 14.138 2.52865C14.3984 2.78899 14.3984 3.211 14.138 3.47135L13.6348 3.97396C14.695 5.24567 15.3333 6.8815 15.3333 8.66667C15.3333 12.7168 12.0501 16 8 16C3.94991 16 0.666667 12.7168 0.666667 8.66667C0.666667 4.84135 3.59572 1.70146 7.33333 1.36458V0.666667C7.33333 0.298477 7.63181 1.6094e-08 8 0ZM8 2.66667C4.68629 2.66667 2 5.35296 2 8.66667C2 11.9804 4.68629 14.6667 8 14.6667C11.3137 14.6667 14 11.9804 14 8.66667C14 5.35296 11.3137 2.66667 8 2.66667Z" fill="var(--fill-0, #191F1C)"/>
</g>
</g>
</svg>
