<svg preserveAspectRatio="none" width="100%" height="100%" overflow="visible" style="display: block;" viewBox="0 0 20 20" fill="none" xmlns="http://www.w3.org/2000/svg">
<g id="shape">
<path d="M4.5 9C6.98528 9 9 6.98528 9 4.5C9 2.01472 6.98528 0 4.5 0C2.01472 0 0 2.01472 0 4.5C0 6.98528 2.01472 9 4.5 9Z" fill="var(--fill-0, #191F1C)"/>
<path d="M15.5 9C17.9853 9 20 6.98528 20 4.5C20 2.01472 17.9853 0 15.5 0C13.0147 0 11 2.01472 11 4.5C11 6.98528 13.0147 9 15.5 9Z" fill="var(--fill-0, #191F1C)"/>
<path d="M9 15.5C9 17.9853 6.98528 20 4.5 20C2.01472 20 0 17.9853 0 15.5C0 13.0147 2.01472 11 4.5 11C6.98528 11 9 13.0147 9 15.5Z" fill="var(--fill-0, #191F1C)"/>
<path d="M15.5 20C17.9853 20 20 17.9853 20 15.5C20 13.0147 17.9853 11 15.5 11C13.0147 11 11 13.0147 11 15.5C11 17.9853 13.0147 20 15.5 20Z" fill="var(--fill-0, #191F1C)"/>
</g>
</svg>
