<svg preserveAspectRatio="none" width="100%" height="100%" overflow="visible" style="display: block;" viewBox="0 0 24 24" fill="none" xmlns="http://www.w3.org/2000/svg">
<g id="burger">
<g id="shape">
<path d="M3 6C3 5.44772 3.44771 5 4 5L20 5C20.5523 5 21 5.44772 21 6C21 6.55229 20.5523 7 20 7L4 7C3.44771 7 3 6.55229 3 6Z" fill="var(--fill-0, #191F1C)"/>
<path d="M3 12C3 11.4477 3.44771 11 4 11L20 11C20.5523 11 21 11.4477 21 12C21 12.5523 20.5523 13 20 13L4 13C3.44771 13 3 12.5523 3 12Z" fill="var(--fill-0, #191F1C)"/>
<path d="M4 17C3.44771 17 3 17.4477 3 18C3 18.5523 3.44771 19 4 19L20 19C20.5523 19 21 18.5523 21 18C21 17.4477 20.5523 17 20 17L4 17Z" fill="var(--fill-0, #191F1C)"/>
</g>
</g>
</svg>
