<svg preserveAspectRatio="none" width="100%" height="100%" overflow="visible" style="display: block;" viewBox="0 0 20 18.5" fill="none" xmlns="http://www.w3.org/2000/svg">
<g id="shape">
<path fill-rule="evenodd" clip-rule="evenodd" d="M7 11C8.72478 11 10.1776 12.1644 10.6152 13.75H19C19.5523 13.75 20 14.1977 20 14.75C20 15.3023 19.5523 15.75 19 15.75H10.6152C10.1776 17.3356 8.7248 18.5 7 18.5C5.27521 18.5 3.82239 17.3356 3.38477 15.75H1C0.447715 15.75 0 15.3023 0 14.75C2.88615e-05 14.1977 0.447733 13.75 1 13.75H3.38477C3.82241 12.1644 5.27523 11 7 11ZM7 13C6.03349 13 5.25003 13.7835 5.25 14.75C5.25 15.7165 6.03347 16.5 7 16.5C7.96652 16.5 8.75 15.7165 8.75 14.75C8.74997 13.7835 7.96651 13 7 13Z" fill="var(--fill-0, #191F1C)"/>
<path fill-rule="evenodd" clip-rule="evenodd" d="M13.1943 0C14.9191 0 16.3729 1.16438 16.8105 2.75H19C19.5523 2.75 20 3.19774 20 3.75C20 4.30228 19.5523 4.75 19 4.75H16.8105C16.3729 6.33562 14.9191 7.5 13.1943 7.5C11.4697 7.49979 10.0167 6.33548 9.5791 4.75H1C0.447715 4.75 0 4.30228 0 3.75C2.88615e-05 3.19774 0.447733 2.75 1 2.75H9.5791C10.0167 1.16452 11.4697 0.000213731 13.1943 0ZM13.1943 2C12.228 2.00026 11.4444 2.78366 11.4443 3.75C11.4443 4.71637 12.228 5.49974 13.1943 5.5C14.1609 5.5 14.9453 4.71653 14.9453 3.75C14.9453 2.7835 14.1608 2 13.1943 2Z" fill="var(--fill-0, #191F1C)"/>
</g>
</svg>
