<svg preserveAspectRatio="none" width="100%" height="100%" overflow="visible" style="display: block;" viewBox="0 0 20 20" fill="none" xmlns="http://www.w3.org/2000/svg">
<g id="share_ios (outline)">
<g id="shape">
<path d="M9.16667 12.5016C9.16667 12.9617 9.53976 13.3347 10 13.3347C10.4602 13.3347 10.8333 12.9617 10.8333 12.5016V2.49919L12.357 4.0224C12.6825 4.34774 13.2101 4.34774 13.5355 4.0224C13.861 3.69707 13.861 3.1696 13.5355 2.84427L11.1785 0.487999C10.5276 -0.162667 9.47237 -0.162666 8.8215 0.488L6.46447 2.84427C6.13904 3.1696 6.13904 3.69707 6.46447 4.0224C6.78991 4.34774 7.31755 4.34774 7.64299 4.0224L9.16667 2.49921L9.16667 12.5016Z" fill="var(--fill-0, #191F1C)"/>
<path d="M2.5 16.6672C2.5 17.5874 3.24619 18.3333 4.16667 18.3333H15.8333C16.7538 18.3333 17.5 17.5874 17.5 16.6672V8.33626C17.5 7.41608 16.7538 6.67013 15.8333 6.67013H14.1667C13.7064 6.67013 13.3333 7.0431 13.3333 7.50319C13.3333 7.96328 13.7064 8.33626 14.1667 8.33626H15.8333V16.6672H4.16667L4.16667 8.33626H5.83333C6.29357 8.33626 6.66667 7.96328 6.66667 7.50319C6.66667 7.0431 6.29357 6.67013 5.83333 6.67013H4.16667C3.24619 6.67013 2.5 7.41608 2.5 8.33626L2.5 16.6672Z" fill="var(--fill-0, #191F1C)"/>
</g>
</g>
</svg>
