<svg preserveAspectRatio="none" width="100%" height="100%" overflow="visible" style="display: block;" viewBox="0 0 20 20" fill="none" xmlns="http://www.w3.org/2000/svg">
<g id="basket">
<path id="shape" fill-rule="evenodd" clip-rule="evenodd" d="M13.009 2.68692C12.9057 2.23842 13.1856 1.79113 13.6341 1.68789C14.0826 1.58464 14.5299 1.86453 14.6331 2.31304L15.8272 7.50018H18.3333C18.8597 7.50018 19.2626 8.00489 19.1459 8.5182L17.3574 16.3874C17.0987 17.5256 16.0869 18.3333 14.9196 18.3333H5.08036C3.91311 18.3333 2.90122 17.5256 2.64253 16.3874L0.854039 8.5182C0.737375 8.00489 1.14025 7.50018 1.66665 7.50018H4.17277L5.36685 2.31304C5.4701 1.86453 5.91738 1.58464 6.36589 1.68789C6.81439 1.79113 7.09428 2.23842 6.99104 2.68692L5.88303 7.50018H14.117L13.009 2.68692ZM9.22913 10.8334C9.22913 10.4077 9.57424 10.0626 9.99996 10.0626C10.4257 10.0626 10.7708 10.4077 10.7708 10.8334V15.0001C10.7708 15.4258 10.4257 15.7709 9.99996 15.7709C9.57424 15.7709 9.22913 15.4258 9.22913 15.0001V10.8334ZM15.2872 10.0817C15.7023 10.1763 15.9621 10.5895 15.8675 11.0045L14.9182 15.1712C14.8237 15.5863 14.4105 15.8461 13.9954 15.7516C13.5804 15.657 13.3205 15.2438 13.4151 14.8287L14.3644 10.6621C14.459 10.247 14.8721 9.98717 15.2872 10.0817ZM4.13246 11.0045C4.03789 10.5895 4.29772 10.1763 4.7128 10.0817C5.12788 9.98717 5.54104 10.247 5.63561 10.6621L6.58491 14.8287C6.67948 15.2438 6.41965 15.657 6.00456 15.7516C5.58948 15.8461 5.17633 15.5863 5.08176 15.1712L4.13246 11.0045Z" fill="var(--fill-0, white)"/>
</g>
</svg>
