<svg preserveAspectRatio="none" width="100%" height="100%" overflow="visible" style="display: block;" viewBox="0 0 67.1005 13.3333" fill="none" xmlns="http://www.w3.org/2000/svg">
<g id="Icons">
<path id="Mobile Signal" d="M2 8.66699C2.55229 8.66699 3 9.11471 3 9.66699V11.667C2.99982 12.2191 2.55218 12.667 2 12.667H1C0.447823 12.667 0.00017597 12.2191 0 11.667V9.66699C0 9.11471 0.447714 8.667 1 8.66699H2ZM6.66699 6.66699C7.21914 6.66716 7.66699 7.11481 7.66699 7.66699V11.667C7.66682 12.219 7.21903 12.6668 6.66699 12.667H5.66699C5.11482 12.667 4.66717 12.2191 4.66699 11.667V7.66699C4.66699 7.11471 5.11471 6.66699 5.66699 6.66699H6.66699ZM11.333 4.33301C11.8852 4.33301 12.3328 4.78087 12.333 5.33301V11.667C12.3328 12.2191 11.8852 12.667 11.333 12.667H10.333C9.78098 12.6668 9.33318 12.219 9.33301 11.667V5.33301C9.33318 4.78099 9.78098 4.33321 10.333 4.33301H11.333ZM16 2C16.5523 2 17 2.44772 17 3V11.667C16.9998 12.2191 16.5522 12.667 16 12.667H15C14.4478 12.667 14.0002 12.2191 14 11.667V3C14 2.44772 14.4477 2.00001 15 2H16Z" fill="var(--fill-0, #191F1C)"/>
<path id="Wifi" d="M27.4268 10.4004C28.7024 9.32151 30.5712 9.32151 31.8467 10.4004C31.9108 10.4584 31.9475 10.5406 31.9493 10.627C31.951 10.7134 31.9173 10.7968 31.8555 10.8574L29.8585 12.873C29.7999 12.9323 29.72 12.9658 29.6368 12.9658C29.5535 12.9658 29.4736 12.9322 29.4151 12.873L27.4171 10.8574C27.3555 10.7968 27.3215 10.7133 27.3233 10.627C27.3251 10.5405 27.3627 10.4584 27.4268 10.4004ZM24.7618 7.71094C27.5099 5.15492 31.7656 5.15499 34.5137 7.71094C34.5757 7.77079 34.6114 7.85333 34.6124 7.93945C34.6132 8.02565 34.5793 8.10874 34.5186 8.16992L33.3643 9.33691C33.2453 9.45603 33.0528 9.4587 32.9307 9.34277C32.0283 8.52558 30.8543 8.07319 29.6368 8.07324C28.4201 8.07375 27.2467 8.5261 26.3448 9.34277C26.2227 9.45859 26.0301 9.45599 25.9112 9.33691L24.7569 8.16992C24.6962 8.10885 24.6623 8.02555 24.6631 7.93945C24.6641 7.85333 24.6998 7.77078 24.7618 7.71094ZM22.0967 5.0293C26.3119 0.990127 32.9618 0.989876 37.1768 5.0293C37.2377 5.08924 37.272 5.17138 37.2725 5.25684C37.273 5.3424 37.2391 5.42463 37.1788 5.48535L36.0235 6.65234C35.9044 6.77206 35.7108 6.77315 35.5899 6.65527C33.984 5.12855 31.8526 4.27747 29.6368 4.27734C27.4207 4.27734 25.2888 5.12839 23.6827 6.65527C23.5619 6.77326 23.3691 6.77204 23.2501 6.65234L22.0938 5.48535C22.0335 5.42459 21.9995 5.34242 22.0001 5.25684C22.0007 5.17133 22.0357 5.08922 22.0967 5.0293Z" fill="var(--fill-0, #191F1C)"/>
<g id="Battery">
<path id="Rectangle" opacity="0.35" d="M44.9395 2.5H61.6055C62.8021 2.5 63.7725 3.47037 63.7725 4.66699V10.667C63.7723 11.8635 62.802 12.833 61.6055 12.833H44.9395C43.7429 12.833 42.7726 11.8635 42.7725 10.667V4.66699C42.7725 3.47038 43.7428 2.5 44.9395 2.5Z" stroke="var(--stroke-0, #191F1C)"/>
<path id="Combined Shape" opacity="0.4" d="M65.2724 5.66667V9.66667C66.0772 9.32789 66.6005 8.5398 66.6005 7.66667C66.6005 6.79353 66.0772 6.00544 65.2724 5.66667" fill="var(--fill-0, #191F1C)"/>
<path id="Rectangle_2" d="M44.2725 5.33333C44.2725 4.59695 44.8694 4 45.6058 4H60.9391C61.6755 4 62.2724 4.59695 62.2724 5.33333V10C62.2724 10.7364 61.6755 11.3333 60.9391 11.3333H45.6058C44.8694 11.3333 44.2725 10.7364 44.2725 10V5.33333Z" fill="var(--fill-0, #191F1C)"/>
</g>
</g>
</svg>
