<svg preserveAspectRatio="none" width="100%" height="100%" overflow="visible" style="display: block;" viewBox="0 0 24 24" fill="none" xmlns="http://www.w3.org/2000/svg">
<g id="dineout-default">
<g id="Union">
<path d="M22 20C22.5523 20 23 20.4477 23 21C23 21.5523 22.5523 22 22 22H2C1.44772 22 1 21.5523 1 21C1 20.4477 1.44772 20 2 20H22Z" fill="var(--fill-0, #000A07)" fill-opacity="0.63"/>
<path d="M12 10C13.5886 10 14.8503 10.7514 15.6934 11.7236C16.5186 12.6754 17 13.9023 17 15H15C15 14.4409 14.7313 13.6681 14.1816 13.0342C13.6497 12.4207 12.9114 12 12 12V10Z" fill="var(--fill-0, #000A07)" fill-opacity="0.63"/>
<path fill-rule="evenodd" clip-rule="evenodd" d="M12 7C17.078 7 21 11.5911 21 17V18H3V17C3 11.5911 6.92196 7 12 7ZM12 9C8.52321 9 5.49103 11.9676 5.05566 16H18.9443C18.509 11.9676 15.4768 9 12 9Z" fill="var(--fill-0, #000A07)" fill-opacity="0.63"/>
<path d="M13 3C13.5523 3 14 3.44772 14 4C14 4.55228 13.5523 5 13 5H11C10.4477 5 10 4.55228 10 4C10 3.44772 10.4477 3 11 3H13Z" fill="var(--fill-0, #000A07)" fill-opacity="0.63"/>
</g>
</g>
</svg>
