<svg preserveAspectRatio="none" width="100%" height="100%" overflow="visible" style="display: block;" viewBox="0 0 24 24" fill="none" xmlns="http://www.w3.org/2000/svg">
<g id="home-default">
<path id="Union" d="M10.6709 2.46247C11.3761 1.8502 12.4247 1.85014 13.1299 2.46247L20.1553 8.56403C20.5651 8.92006 20.8007 9.43716 20.8008 9.98005V19.4781C20.8008 20.5135 19.9611 21.3528 18.9258 21.3531H4.875C3.83947 21.3531 3 20.5136 3 19.4781V9.98005C3.00012 9.43715 3.23563 8.92006 3.64551 8.56403L10.6709 2.46247ZM11.9824 3.78376C11.9355 3.74316 11.8653 3.74316 11.8184 3.78376L4.79297 9.88532C4.76574 9.90897 4.75012 9.944 4.75 9.98005V19.4781C4.75 19.5471 4.80597 19.6031 4.875 19.6031H18.9258C18.9946 19.6028 19.0508 19.547 19.0508 19.4781V9.98005C19.0507 9.944 19.0341 9.90897 19.0068 9.88532L11.9824 3.78376ZM14.4004 16.106C14.8834 16.106 15.2751 16.497 15.2754 16.98C15.2756 17.4633 14.8836 17.8558 14.4004 17.856L9.40039 17.857C8.91737 17.857 8.5257 17.466 8.52539 16.983C8.52521 16.4997 8.91714 16.1072 9.40039 16.107L14.4004 16.106Z" fill="var(--fill-0, #5E6563)"/>
</g>
</svg>
