<svg preserveAspectRatio="none" width="100%" height="100%" overflow="visible" style="display: block;" viewBox="0 0 24 24" fill="none" xmlns="http://www.w3.org/2000/svg">
<g id="home-select">
<path id="Subtract" d="M10.6709 2.46265C11.3761 1.85042 12.4247 1.85036 13.1299 2.46265L20.1553 8.56421C20.5651 8.92023 20.8006 9.43739 20.8008 9.98023V19.4783C20.8007 20.5136 19.961 21.353 18.9258 21.3533H4.875C3.83951 21.3533 3.00007 20.5137 3 19.4783V9.98023C3.00014 9.43738 3.23568 8.92023 3.64551 8.56421L10.6709 2.46265ZM9.39844 16.1072C8.91527 16.1074 8.52339 16.499 8.52344 16.9822C8.52362 17.4654 8.91616 17.8574 9.39941 17.8572L14.3994 17.8552C14.8824 17.8549 15.2734 17.4632 15.2734 16.9802C15.2733 16.497 14.8817 16.1051 14.3984 16.1052L9.39844 16.1072Z" fill="var(--fill-0, #191F1C)"/>
</g>
</svg>
