<svg preserveAspectRatio="none" width="100%" height="100%" overflow="visible" style="display: block;" viewBox="0 0 20 20" fill="none" xmlns="http://www.w3.org/2000/svg">
<g id="bolt_plus (outline)">
<path id="shape" d="M8.92242 19.1667C8.00614 19.1667 7.02877 18.8307 6.36446 18.2962C5.47872 17.5784 5.22674 16.4789 5.6238 15.0357C5.81596 14.3769 6.00513 13.7172 6.19648 13.0581C5.31074 13.165 4.20356 13.3024 4.05848 13.3177C3.40181 13.4093 2.42444 13.1803 1.81358 12.4854C1.26381 11.8364 1.0271 10.859 1.17982 9.78238C1.29435 8.98063 1.91285 8.1178 2.87494 8.00326C4.4159 7.84917 5.95586 7.6746 7.49455 7.49931L8.7239 2.68881C9.00642 1.55109 10.022 0.833333 11.3811 0.833333C12.3661 0.833333 13.6107 1.20748 14.1758 2.26885C14.3972 2.69645 14.4583 3.18513 14.3667 3.7349C14.2445 4.42212 13.8933 5.72782 13.5497 6.9419C14.5041 6.85027 15.3135 6.77391 15.68 6.77391C16.6421 6.77391 17.3064 6.97244 17.7646 7.39241C18.803 8.33923 18.8794 9.22498 18.8641 10.0496C18.8488 11.0957 17.8409 12.18 16.7872 12.2793C16.749 12.2793 13.313 12.5923 11.9385 12.7298C11.5325 14.4158 11.1824 16.1078 10.7397 17.7846C10.5259 18.594 9.77762 19.1514 8.93006 19.1514L8.92242 19.1667ZM7.76943 11.7219C7.96033 11.9433 8.02141 12.2411 7.94505 12.5236C7.83815 12.8901 7.63963 13.5697 7.45637 14.1882C7.29602 14.7456 7.1433 15.2496 7.09749 15.4328C6.86842 16.2727 6.93714 16.7843 7.32656 17.105C7.70835 17.4181 8.36502 17.6395 8.92242 17.6395C9.07514 17.6395 9.20495 17.5479 9.25076 17.4257C9.28894 17.2577 10.3198 12.913 10.5565 11.9586C10.6481 11.5844 10.9688 11.3095 11.3506 11.2713C12.1981 11.1797 16.4589 10.7903 16.6421 10.7674C17.0584 10.7154 17.3308 10.2206 17.3308 9.95331C17.3453 8.81175 16.7969 8.31633 15.6648 8.31633C14.6873 8.31633 13.7062 8.48365 12.7326 8.56831C12.4349 8.59885 12.1523 8.46904 11.9691 8.24761C11.7858 8.02617 11.7247 7.72074 11.8087 7.43822C12.3738 5.51402 12.7479 4.10905 12.8548 3.4982C12.9913 2.67941 12.0615 2.38338 11.3811 2.38338C11.007 2.38338 10.3579 2.47501 10.2052 3.07823L8.87661 8.28578C8.77735 8.67521 8.45665 8.95009 8.05959 8.99591C6.39177 9.17785 4.71258 9.31643 3.05057 9.54568C2.88258 9.56858 2.72223 9.81293 2.69169 10.0191C2.60006 10.6452 2.70696 11.195 2.97421 11.5004C3.19564 11.7524 3.63852 11.8517 3.85995 11.8211C4.08139 11.7906 6.34919 11.5157 6.99823 11.4393C7.32361 11.4011 7.54706 11.4692 7.76943 11.7219Z" fill="var(--fill-0, #191F1C)"/>
</g>
</svg>
