<svg preserveAspectRatio="none" width="100%" height="100%" overflow="visible" style="display: block;" viewBox="0 0 12 12" fill="none" xmlns="http://www.w3.org/2000/svg">
<g id="Rating Selected">
<path id="shape" d="M10.9922 5.36156L8.87812 7.20656L9.51141 9.95344C9.54492 10.097 9.53535 10.2473 9.48391 10.3855C9.43247 10.5237 9.34144 10.6437 9.22219 10.7304C9.10294 10.8171 8.96077 10.8668 8.81345 10.8732C8.66613 10.8796 8.5202 10.8424 8.39391 10.7662L5.99812 9.31312L3.6075 10.7662C3.4812 10.8424 3.33528 10.8796 3.18796 10.8732C3.04064 10.8668 2.89847 10.8171 2.77922 10.7304C2.65997 10.6437 2.56893 10.5237 2.51749 10.3855C2.46605 10.2473 2.45649 10.097 2.49 9.95344L3.12234 7.20938L1.00781 5.36156C0.895973 5.2651 0.815101 5.13777 0.775339 4.99554C0.735576 4.8533 0.738694 4.70249 0.784299 4.56202C0.829905 4.42155 0.915969 4.29767 1.0317 4.20591C1.14743 4.11416 1.28767 4.05862 1.43484 4.04625L4.22203 3.80484L5.31 1.20984C5.36681 1.07368 5.46265 0.957369 5.58543 0.875558C5.70821 0.793747 5.85246 0.750094 6 0.750094C6.14754 0.750094 6.29179 0.793747 6.41457 0.875558C6.53735 0.957369 6.63318 1.07368 6.69 1.20984L7.78125 3.80484L10.5675 4.04625C10.7147 4.05862 10.8549 4.11416 10.9706 4.20591C11.0864 4.29767 11.1724 4.42155 11.218 4.56202C11.2636 4.70249 11.2668 4.8533 11.227 4.99554C11.1872 5.13777 11.1064 5.2651 10.9945 5.36156H10.9922Z" fill="var(--fill-0, black)"/>
</g>
</svg>
