<svg preserveAspectRatio="none" width="100%" height="100%" overflow="visible" style="display: block;" viewBox="0 0 10.5071 10.1238" fill="none" xmlns="http://www.w3.org/2000/svg">
<path id="shape" d="M10.2445 4.61147L8.13048 6.45647L8.76376 9.20334C8.79727 9.34694 8.78771 9.49723 8.73627 9.63543C8.68483 9.77362 8.59379 9.89358 8.47454 9.98032C8.35529 10.0671 8.21312 10.1167 8.0658 10.1231C7.91848 10.1295 7.77255 10.0923 7.64626 10.0162L5.25048 8.56303L2.85985 10.0162C2.73356 10.0923 2.58763 10.1295 2.44031 10.1231C2.29299 10.1167 2.15082 10.0671 2.03157 9.98032C1.91232 9.89358 1.82129 9.77362 1.76985 9.63543C1.7184 9.49723 1.70884 9.34694 1.74235 9.20334L2.3747 6.45928L0.260167 4.61147C0.148327 4.51501 0.0674552 4.38768 0.0276929 4.24544C-0.0120694 4.10321 -0.00895223 3.9524 0.0366535 3.81193C0.0822593 3.67145 0.168323 3.54757 0.284053 3.45582C0.399783 3.36407 0.540027 3.30852 0.687198 3.29616L3.47439 3.05475L4.56235 0.45975C4.61917 0.323586 4.715 0.207276 4.83778 0.125465C4.96057 0.0436538 5.10481 0 5.25235 0C5.3999 0 5.54414 0.0436538 5.66692 0.125465C5.78971 0.207276 5.88554 0.323586 5.94235 0.45975L7.0336 3.05475L9.81985 3.29616C9.96702 3.30852 10.1073 3.36407 10.223 3.45582C10.3387 3.54757 10.4248 3.67145 10.4704 3.81193C10.516 3.9524 10.5191 4.10321 10.4794 4.24544C10.4396 4.38768 10.3587 4.51501 10.2469 4.61147H10.2445Z" fill="var(--fill-0, black)"/>
</svg>
