<svg preserveAspectRatio="none" width="100%" height="100%" overflow="visible" style="display: block;" viewBox="0 0 20 20" fill="none" xmlns="http://www.w3.org/2000/svg">
<g id="bike_delivery (outline)">
<g id="shape">
<path fill-rule="evenodd" clip-rule="evenodd" d="M4.58333 10.8333C6.66667 10.8333 8.33333 12.5 8.33333 14.5833C8.33333 16.6667 6.66667 18.3333 4.58333 18.3333C2.5 18.3333 0.833333 16.6667 0.833333 14.5833C0.833333 12.5 2.5 10.8333 4.58333 10.8333ZM4.58333 12.5C3.41667 12.5 2.5 13.4167 2.5 14.5833C2.5 15.75 3.41667 16.6667 4.58333 16.6667C5.75 16.6667 6.66667 15.75 6.66667 14.5833C6.66667 13.4167 5.75 12.5 4.58333 12.5Z" fill="var(--fill-0, #191F1C)"/>
<path fill-rule="evenodd" clip-rule="evenodd" d="M16.25 10.8333C18.3333 10.8333 20 12.5 20 14.5833C20 16.6667 18.3333 18.3333 16.25 18.3333C14.1667 18.3333 12.5 16.6667 12.5 14.5833C12.5 12.5 14.1667 10.8333 16.25 10.8333ZM16.25 12.5C15.0833 12.5 14.1667 13.4167 14.1667 14.5833C14.1667 15.75 15.0833 16.6667 16.25 16.6667C17.4167 16.6667 18.3333 15.75 18.3333 14.5833C18.3333 13.4167 17.4167 12.5 16.25 12.5Z" fill="var(--fill-0, #191F1C)"/>
<path d="M10 5.91634C10.4166 5.4999 11.0832 5.49997 11.4998 5.91634L13.0835 7.5H14.7502C15.2501 7.50008 15.7503 7.91688 15.7503 8.50016C15.7502 9.00006 15.3334 9.50024 14.7502 9.50033H12.5C12.25 9.50032 11.9163 9.33333 11.7497 9.16667L10.6665 8.0835L9.16667 9.58333L11.0002 11.4168C11.2499 11.6667 11.3329 11.9165 11.333 12.1663V15.8333C11.333 16.3332 10.9168 16.8333 10.3337 16.8335C9.83366 16.8335 9.33351 16.4167 9.3335 15.8333V12.583L7.66683 10.9163C6.91694 10.1664 6.91696 9.0003 7.66683 8.25033L10 5.91634Z" fill="var(--fill-0, #191F1C)"/>
<path fill-rule="evenodd" clip-rule="evenodd" d="M5.75033 0.833333C5.9169 0.833428 6.16644 0.916775 6.33301 1.08317L9.16667 3.99984C9.5 4.33317 9.5 4.8335 9.16667 5.16683L6.25 8.0835C6.08337 8.25009 5.91645 8.33333 5.6665 8.33333C5.49984 8.33327 5.24961 8.25009 5.08301 8.0835L2.16634 5.16683C1.83314 4.83353 1.83314 4.33314 2.16634 3.99984L5.16683 1.08317C5.33345 0.916599 5.5004 0.833333 5.75033 0.833333ZM3.99984 4.58333L5.75033 6.41683L7.5 4.58333L5.75033 2.83366L3.99984 4.58333Z" fill="var(--fill-0, #191F1C)"/>
<path d="M13.0835 2.66683C14.0001 2.66694 14.7502 3.4169 14.7502 4.3335C14.7501 5.25003 14 6.00005 13.0835 6.00016C12.1669 6.00016 11.4169 5.25009 11.4168 4.3335C11.4168 3.41683 12.1668 2.66683 13.0835 2.66683Z" fill="var(--fill-0, #191F1C)"/>
</g>
</g>
</svg>
