<svg preserveAspectRatio="none" width="100%" height="100%" overflow="visible" style="display: block;" viewBox="0 0 24 24" fill="none" xmlns="http://www.w3.org/2000/svg">
<g id="home-default">
<path id="Union" d="M10.6318 2.54114C11.4012 1.8199 12.5988 1.8199 13.3682 2.54114L20.3682 9.10364C20.7712 9.48171 21 10.01 21 10.5626V20.129C21 21.2336 20.1045 22.129 19 22.129H5C3.89546 22.129 3.00005 21.2336 3 20.129V10.5626C3 10.01 3.2288 9.48171 3.63184 9.10364L10.6318 2.54114ZM5 10.5626V20.129H8V15.129C8 14.0245 8.89543 13.129 10 13.129H14C15.1046 13.129 16 14.0245 16 15.129V20.129H19V10.5626L12 4.00012L5 10.5626ZM10 20.129H14V15.129H10V20.129ZM13 11.129H11V9.12903H13V11.129Z" fill="var(--fill-0, #000A07)" fill-opacity="0.63"/>
</g>
</svg>
