<svg preserveAspectRatio="none" width="100%" height="100%" overflow="visible" style="display: block;" viewBox="0 0 37.5841 22.0576" fill="none" xmlns="http://www.w3.org/2000/svg">
<path id="Union" fill-rule="evenodd" clip-rule="evenodd" d="M6.83029 12.6821H3.9044V10.243H6.83029C7.5003 10.243 8.04981 10.7925 8.04981 11.4625C8.04981 12.1326 7.5003 12.6821 6.83029 12.6821ZM3.9044 3.9044H6.07351C6.74352 3.9044 7.29303 4.45391 7.29303 5.12392C7.29303 5.79393 6.74352 6.34344 6.07351 6.34344H3.9044V3.9044ZM10.4214 7.81362C10.9082 7.03274 11.183 6.10725 11.183 5.1191C11.183 2.28962 8.89335 0 6.06387 0H0V16.5768H6.82547C9.65495 16.5768 11.9446 14.2872 11.9446 11.4577C11.9494 10.0309 11.3661 8.74392 10.4214 7.81362ZM30.214 0.00476074L26.3145 0.833843V16.5816H30.214V0.00476074ZM19.1035 12.6821C18.0238 12.6821 17.1513 11.8096 17.1513 10.7299C17.1513 9.65016 18.0238 8.7777 19.1035 8.7777C20.1832 8.7777 21.0557 9.65016 21.0557 10.7299C21.0557 11.8096 20.1832 12.6821 19.1035 12.6821ZM19.1035 4.70941C15.7823 4.70941 13.083 7.40393 13.083 10.7299C13.083 14.0559 15.7775 16.7504 19.1035 16.7504C22.4295 16.7504 25.124 14.0559 25.124 10.7299C25.124 7.40393 22.4246 4.70941 19.1035 4.70941ZM21.0558 20.1054C21.0558 19.0256 20.1785 18.1532 19.1036 18.1532C18.0238 18.1532 17.1514 19.0256 17.1514 20.1054C17.1514 21.1851 18.0238 22.0576 19.1036 22.0576C20.1833 22.0576 21.0558 21.1851 21.0558 20.1054ZM37.5744 4.936V8.83558H35.6319V11.8964C35.6319 12.8219 35.9307 13.5064 36.7116 13.5064C37.2177 13.5064 37.5841 13.3907 37.5841 13.3907V16.2636C37.5841 16.2636 36.7743 16.7504 35.6801 16.7504H35.6319C35.6078 16.7504 35.5849 16.7492 35.562 16.748C35.5391 16.7468 35.5162 16.7456 35.4921 16.7456H35.4535C35.4408 16.7456 35.4267 16.7443 35.4135 16.743C35.4016 16.7419 35.3903 16.7408 35.3812 16.7408C33.2025 16.6299 31.7227 15.2561 31.7227 12.8798V2.78617L35.6222 1.95709V4.936H37.5744Z" fill="var(--fill-0, white)"/>
</svg>
