<svg preserveAspectRatio="none" width="100%" height="100%" overflow="visible" style="display: block;" viewBox="0 0 20 20" fill="none" xmlns="http://www.w3.org/2000/svg">
<g id="search">
<path id="shape" fill-rule="evenodd" clip-rule="evenodd" d="M1.66667 9.16667C1.66667 5 5 1.66667 9.16667 1.66667C13.3333 1.66667 16.6667 5 16.6667 9.16667C16.6667 10.9504 16.0558 12.5814 15.0302 13.8635L18.3333 17.1667C18.6667 17.5 18.6667 18 18.3333 18.3333C18 18.6667 17.5 18.6667 17.1667 18.3333L13.8635 15.0302C12.5814 16.0558 10.9504 16.6667 9.16667 16.6667C5 16.6667 1.66667 13.3333 1.66667 9.16667ZM15 9.16667C15 5.91667 12.4167 3.33333 9.16667 3.33333C5.91667 3.33333 3.33333 5.91667 3.33333 9.16667C3.33333 12.4167 5.91667 15 9.16667 15C12.4167 15 15 12.4167 15 9.16667Z" fill="var(--fill-0, #191F1C)"/>
</g>
</svg>
