<svg preserveAspectRatio="none" width="100%" height="100%" overflow="visible" style="display: block;" viewBox="0 0 18.3333 18.3333" fill="none" xmlns="http://www.w3.org/2000/svg">
<path id="shape" fill-rule="evenodd" clip-rule="evenodd" d="M9.16667 18.3333C14.2293 18.3333 18.3333 14.2292 18.3333 9.16667C18.3333 4.10411 14.2293 0 9.16667 0C4.10405 0 0 4.10411 0 9.16667C0 14.2292 4.10405 18.3333 9.16667 18.3333ZM6.17619 5.08606C5.87516 4.78505 5.3871 4.78505 5.08607 5.08606C4.78504 5.38706 4.78504 5.87514 5.08607 6.17615L8.07654 9.16667L5.08607 12.1572C4.78504 12.4582 4.78504 12.9463 5.08607 13.2473C5.3871 13.5483 5.87516 13.5483 6.17619 13.2473L9.16666 10.2568L12.1571 13.2473C12.4582 13.5483 12.9462 13.5483 13.2473 13.2473C13.5483 12.9463 13.5483 12.4582 13.2473 12.1572L10.2568 9.16667L13.2473 6.17615C13.5483 5.87514 13.5483 5.38706 13.2473 5.08606C12.9462 4.78505 12.4582 4.78505 12.1571 5.08606L9.16666 8.07658L6.17619 5.08606Z" fill="var(--fill-0, #00110B)" fill-opacity="0.47"/>
</svg>
