<svg preserveAspectRatio="none" width="100%" height="100%" overflow="visible" style="display: block;" viewBox="0 0 21.2155 22.0001" fill="none" xmlns="http://www.w3.org/2000/svg">
<path id="shape" d="M12.3107 13.7965C12.3318 13.7133 12.401 13.6535 12.4855 13.6441C13.606 13.5175 19.4036 12.99 19.4036 12.99C20.2707 12.9091 21.2012 11.9115 21.2141 11.0499C21.2282 10.0957 21.1555 9.28912 20.0971 8.32434C19.6899 7.95273 19.0352 7.7804 18.0378 7.7804C17.342 7.7804 14.9519 8.04182 14.1082 8.11567C13.9956 8.12505 13.9099 8.01955 13.9416 7.9117C14.2056 7.01373 15.1138 3.90603 15.3344 2.63176C15.4224 2.12651 15.3743 1.70684 15.1889 1.34929C14.682 0.387119 13.4297 0 12.4186 0C11.1056 0 10.1669 0.625996 9.90878 1.67284C9.90878 1.67284 8.43738 7.43458 8.16985 8.48143C8.14404 8.58107 8.06073 8.65258 7.95865 8.6643C6.97889 8.77918 2.06954 9.30202 1.39603 9.38056C0.645076 9.46731 0.141703 10.2047 0.0501809 10.8553C-0.108223 11.9689 0.112369 12.9666 0.655636 13.5902C1.18913 14.2035 2.11711 14.4264 2.7055 14.3487C2.9919 14.3108 5.95337 13.9524 6.80406 13.8528C6.90614 13.8411 6.98828 13.936 6.96012 14.0345C6.70315 14.9501 5.9874 17.3438 5.84777 17.8526C5.6964 18.4012 5.23762 20.0717 6.48256 21.0811C7.19572 21.6594 8.2816 22.0001 9.20241 22.0001C9.86302 22.0001 10.438 21.5711 10.5999 20.9556C11.18 18.5717 11.7156 16.1766 12.3107 13.7965Z" fill="url(#paint0_linear_0_2075)"/>
<defs>
<linearGradient id="paint0_linear_0_2075" x1="-3.39752e-08" y1="11.0001" x2="21.2155" y2="11.0001" gradientUnits="userSpaceOnUse">
<stop stop-color="#253BFF"/>
<stop offset="1" stop-color="#0085FF"/>
</linearGradient>
</defs>
</svg>
