<svg preserveAspectRatio="none" width="100%" height="100%" overflow="visible" style="display: block;" viewBox="0 0 20 20" fill="none" xmlns="http://www.w3.org/2000/svg">
<g id="offer (outline)">
<g id="shape">
<path d="M15 6.66667C15 7.58714 14.2538 8.33333 13.3333 8.33333C12.4129 8.33333 11.6667 7.58714 11.6667 6.66667C11.6667 5.74619 12.4129 5 13.3333 5C14.2538 5 15 5.74619 15 6.66667Z" fill="var(--fill-0, #191F1C)"/>
<path fill-rule="evenodd" clip-rule="evenodd" d="M10.3334 1.66667H16.6667C17.5834 1.66667 18.3334 2.41667 18.3334 3.33333V9.66667C18.3334 10.0833 18.1667 10.5 17.8334 10.8333L10.3334 18.3333C10 18.6667 9.58335 18.8333 9.16669 18.8333C8.75002 18.8333 8.33335 18.6667 8.00002 18.3333L1.66669 12C1.00002 11.3333 1.00002 10.3333 1.66669 9.66667L9.16669 2.16667C9.50002 1.83333 9.91669 1.66667 10.3334 1.66667ZM9.16669 17.1667L16.6667 9.66667V3.33333H10.3334L2.83335 10.8333L9.16669 17.1667Z" fill="var(--fill-0, #191F1C)"/>
</g>
</g>
</svg>
