<svg preserveAspectRatio="none" width="100%" height="100%" overflow="visible" style="display: block;" viewBox="0 0 24 24" fill="none" xmlns="http://www.w3.org/2000/svg">
<g id="user">
<g id="Union">
<path d="M4.5 6.23492C4.5 6.06961 4.58147 5.91505 4.72077 5.82603C4.9902 5.65388 5.46544 5.36417 5.9138 5.16037C7.15978 4.59401 9.14377 4 12 4C14.8562 4 16.8402 4.59401 18.0862 5.16037C18.5346 5.36417 19.0098 5.65388 19.2792 5.82603C19.4185 5.91505 19.5 6.06961 19.5 6.23492V7.5H12.5C11.9477 7.5 11.5 7.94772 11.5 8.5C11.5 9.05228 11.9477 9.5 12.5 9.5H19.5V13.5C19.5 14.0523 19.9477 14.5 20.5 14.5C21.0523 14.5 21.5 14.0523 21.5 13.5V5.49225C21.5 5.23163 21.3996 4.97986 21.2118 4.79921C21.1467 4.73666 21.0817 4.67608 21.0301 4.63201C20.9291 4.54578 20.7854 4.43028 20.5969 4.29564C20.2197 4.02625 19.6639 3.6806 18.9138 3.33963C17.4098 2.65599 15.1438 2 12 2C8.85623 2 6.59022 2.65599 5.0862 3.33963C4.33607 3.6806 3.78029 4.02625 3.40314 4.29564C3.21464 4.43028 3.07089 4.54578 2.96988 4.63201C2.91826 4.67608 2.85327 4.73666 2.78823 4.7992C2.60037 4.97986 2.5 5.23163 2.5 5.49225V13.5C2.5 14.0523 2.94772 14.5 3.5 14.5C4.05228 14.5 4.5 14.0523 4.5 13.5V6.23492Z" fill="var(--fill-0, #191F1C)"/>
<path fill-rule="evenodd" clip-rule="evenodd" d="M4.25 15.5C2.45507 15.5 1 16.9551 1 18.75C1 20.5449 2.45507 22 4.25 22C6.04493 22 7.5 20.5449 7.5 18.75C7.5 16.9551 6.04493 15.5 4.25 15.5ZM3 18.75C3 18.0596 3.55964 17.5 4.25 17.5C4.94036 17.5 5.5 18.0596 5.5 18.75C5.5 19.4404 4.94036 20 4.25 20C3.55964 20 3 19.4404 3 18.75Z" fill="var(--fill-0, #191F1C)"/>
<path fill-rule="evenodd" clip-rule="evenodd" d="M12 15.5C10.2051 15.5 8.75 16.9551 8.75 18.75C8.75 20.5449 10.2051 22 12 22C13.7949 22 15.25 20.5449 15.25 18.75C15.25 16.9551 13.7949 15.5 12 15.5ZM10.75 18.75C10.75 18.0596 11.3096 17.5 12 17.5C12.6904 17.5 13.25 18.0596 13.25 18.75C13.25 19.4404 12.6904 20 12 20C11.3096 20 10.75 19.4404 10.75 18.75Z" fill="var(--fill-0, #191F1C)"/>
<path fill-rule="evenodd" clip-rule="evenodd" d="M16.5 18.75C16.5 16.9551 17.9551 15.5 19.75 15.5C21.5449 15.5 23 16.9551 23 18.75C23 20.5449 21.5449 22 19.75 22C17.9551 22 16.5 20.5449 16.5 18.75ZM19.75 17.5C19.0596 17.5 18.5 18.0596 18.5 18.75C18.5 19.4404 19.0596 20 19.75 20C20.4404 20 21 19.4404 21 18.75C21 18.0596 20.4404 17.5 19.75 17.5Z" fill="var(--fill-0, #191F1C)"/>
</g>
</g>
</svg>
