<svg preserveAspectRatio="none" width="100%" height="100%" overflow="visible" style="display: block;" viewBox="0 0 20 20" fill="none" xmlns="http://www.w3.org/2000/svg">
<g id="Rating Selected">
<path id="shape" d="M9.99998 2.08512C10.081 2.08512 10.16 2.10953 10.2275 2.15445C10.295 2.19944 10.3486 2.26318 10.3799 2.33805V2.34L12.1992 6.66519L12.3945 7.13004L12.8965 7.17301L17.54 7.57535H17.543C17.6243 7.58225 17.7017 7.61352 17.7656 7.66422C17.8296 7.71499 17.8771 7.78376 17.9023 7.86148C17.9275 7.93908 17.9291 8.02217 17.9072 8.10074C17.8893 8.16493 17.8557 8.22322 17.8105 8.27164L17.7715 8.3068L14.248 11.382L13.8711 11.7111L13.9834 12.1984L15.039 16.7765V16.7785C15.0576 16.8578 15.0528 16.9413 15.0244 17.0177C14.9959 17.0942 14.9449 17.1611 14.8789 17.2091C14.8131 17.2569 14.7346 17.2837 14.6533 17.2873C14.5923 17.2899 14.5315 17.2793 14.4756 17.256L14.4209 17.2287L10.4297 14.8078L9.99608 14.5451L9.56346 14.8087L5.58104 17.2287C5.5113 17.2706 5.43089 17.2907 5.34959 17.2873C5.26811 17.2837 5.189 17.2571 5.12303 17.2091C5.05705 17.1611 5.00696 17.0942 4.9785 17.0177C4.95007 16.9413 4.94434 16.8579 4.96287 16.7785L4.96385 16.7765L6.01756 12.2033L6.12987 11.716L5.75291 11.3869L2.22947 8.3068L2.22459 8.30387L2.18162 8.2609C2.14187 8.21486 2.11317 8.1598 2.09666 8.10074C2.07475 8.02218 2.0764 7.93907 2.10155 7.86148C2.12678 7.78376 2.17424 7.71499 2.23826 7.66422C2.30221 7.61352 2.37962 7.58226 2.46092 7.57535H2.46385L7.10838 7.17301L7.61131 7.13004L7.80662 6.66422L9.6201 2.33902L9.62108 2.33805C9.65232 2.26321 9.70496 2.19942 9.77244 2.15445C9.83992 2.10953 9.91891 2.08512 9.99998 2.08512Z" stroke="var(--stroke-0, #191F1C)" stroke-width="1.67"/>
</g>
</svg>
