<svg preserveAspectRatio="none" width="100%" height="100%" overflow="visible" style="display: block;" viewBox="0 0 58.38 38.7009" fill="none" xmlns="http://www.w3.org/2000/svg">
<g id="Group 212">
<path id="path15-9" d="M17.263 1.30697L1.30595 16.7442C0.508981 17.4209 0 18.2156 0 19.3526C0 20.4845 0.509553 21.2821 1.30595 21.964L17.263 37.396C17.3655 37.5008 17.4645 37.5426 17.5487 37.5426C17.6999 37.5426 17.8041 37.4052 17.7995 37.2437C17.7949 37.1487 17.7537 37.0393 17.6592 36.9448C13.9137 32.2913 11.1884 26.9541 11.1884 19.4087C11.1884 11.8587 13.9137 6.41682 17.6592 1.75984C17.7537 1.66652 17.7949 1.55889 17.7995 1.46155C17.8046 1.29666 17.6999 1.16326 17.5487 1.16326C17.4645 1.16163 17.3655 1.20277 17.263 1.30697Z" fill="var(--fill-0, #E3000D)"/>
<path id="path17-4" d="M29.5306 0C23.2826 0 20.8413 8.85422 20.8413 19.4077C20.8413 29.9646 23.2826 38.7009 29.5306 38.7009C33.2801 38.7009 36.476 36.5053 36.4863 34.7006C36.4879 34.3056 36.3357 33.9271 36.0042 33.5968C34.2271 31.8798 33.532 30.1639 33.5269 28.6495C33.5154 25.7588 36.0231 23.6055 38.335 23.6055C41.5131 23.6055 43.3876 26.1035 43.3876 29.3383C43.3876 32.4036 42.0817 34.9566 40.6606 37.0011C40.6045 37.0847 40.5793 37.178 40.5793 37.2599C40.5805 37.4202 40.675 37.5519 40.8164 37.5519C40.9023 37.5519 41.003 37.506 41.1129 37.3956L57.074 21.9635C57.871 21.2822 58.38 20.4841 58.38 19.3522C58.38 18.2157 57.8704 17.4205 57.074 16.7437L41.1129 1.30652C41.0036 1.19717 40.9028 1.15079 40.8164 1.15079C40.6738 1.15079 40.5805 1.28362 40.5793 1.4445C40.5793 1.52694 40.6045 1.61912 40.6606 1.70386C42.0811 3.74551 43.3876 6.3013 43.3876 9.36434C43.3876 12.5969 41.5131 15.0971 38.335 15.0971C36.0231 15.0971 33.5154 12.9455 33.5269 10.0542C33.532 8.5399 34.2271 6.8223 36.0042 5.10699C36.3357 4.77492 36.488 4.39991 36.4863 4.00429C36.476 2.19681 33.2801 0 29.5306 0Z" fill="var(--fill-0, #004E9F)"/>
</g>
</svg>
