<svg preserveAspectRatio="none" width="100%" height="100%" overflow="visible" style="display: block;" viewBox="0 0 20 20" fill="none" xmlns="http://www.w3.org/2000/svg">
<g id="calendar (outline)">
<path id="shape" fill-rule="evenodd" clip-rule="evenodd" d="M7.5 2.5C7.5 2.03976 7.1269 1.66667 6.66667 1.66667C6.20643 1.66667 5.83333 2.03976 5.83333 2.5V3.33333H3.33333C2.41286 3.33333 1.66667 4.07953 1.66667 5V16.6667C1.66667 17.5871 2.41286 18.3333 3.33333 18.3333H16.6667C17.5871 18.3333 18.3333 17.5871 18.3333 16.6667V5C18.3333 4.07953 17.5871 3.33333 16.6667 3.33333H14.1667V2.5C14.1667 2.03976 13.7936 1.66667 13.3333 1.66667C12.8731 1.66667 12.5 2.03976 12.5 2.5V3.33333H7.5V2.5ZM12.5 5.83333V5H7.5V5.83333C7.5 6.29357 7.1269 6.66667 6.66667 6.66667C6.20643 6.66667 5.83333 6.29357 5.83333 5.83333V5H3.33333V8.33333H16.6667V5H14.1667V5.83333C14.1667 6.29357 13.7936 6.66667 13.3333 6.66667C12.8731 6.66667 12.5 6.29357 12.5 5.83333ZM16.6667 10H3.33333V16.6667H16.6667V10Z" fill="var(--fill-0, #191F1C)"/>
</g>
</svg>
